<svg width="24" height="24" viewBox="0 0 24 24" fill="none" xmlns="http://www.w3.org/2000/svg">
  <rect x="2" y="2" width="20" height="20" rx="5" fill="#3B245D"/>
  <rect x="2.75" y="2.75" width="18.5" height="18.5" rx="4.25" stroke="#8B5CF6" stroke-opacity=".28" stroke-width="1.5"/>
  <path d="M14.75 6.25c2.85 0 5.05 2.13 5.05 4.85 0 1.58-.73 2.98-1.92 3.87l.42 2.18-2.33-1.12c-.54.15-1.12.22-1.72.22h-1.52c-2.86 0-5.05-2.13-5.05-4.85s2.19-4.85 5.05-4.85h2.02Z" stroke="#D6B4FF" stroke-width="1.55" stroke-linecap="round" stroke-linejoin="round"/>
  <path d="m12.6 9.1-1.3 3h2.15l-1.05 3.05 3.1-4.1h-2.18l1.08-1.95h-1.8Z" stroke="#E879F9" stroke-width="1.35" stroke-linecap="round" stroke-linejoin="round"/>
  <circle cx="7" cy="17" r="4" fill="#5B2FA1"/>
  <path d="M5.2 18.45v-1.6M7 18.45V15.2M8.8 18.45v-2.35" stroke="#F0ABFC" stroke-width="1.35" stroke-linecap="round"/>
</svg>
